<?xml version="1.0" encoding="UTF-8"?>
<svg width="50px" height="50px" viewBox="0 0 50 50" version="1.1" xmlns="http://www.w3.org/2000/svg" xmlns:xlink="http://www.w3.org/1999/xlink">
    <!-- Generator: Sketch 51 (57462) - http://www.bohemiancoding.com/sketch -->
    <title>Artboard</title>
    <desc>Created with Sketch.</desc>
    <defs></defs>
    <g id="Page-1" stroke="none" stroke-width="1" fill="none" fill-rule="evenodd">
        <g id="Artboard">
            <!-- <path d="M57.8284079,16.4166667 C61.0936224,16.4166667 63.6568158,19 63.6568158,22.2666667 C63.6568158,25.5166667 61.0936224,28.0833333 57.8284079,28.0833333 C54.5631934,28.0833333 52,25.5166667 52,22.2666667 C52,19 54.5631934,16.4166667 57.8284079,16.4166667 Z M57.8284079,25.5666667 C59.6079498,25.5666667 60.9630138,24.1666667 60.9630138,22.2666667 C60.9630138,20.35 59.6079498,18.9333333 57.8284079,18.9333333 C56.048866,18.9333333 54.693802,20.35 54.693802,22.2666667 C54.693802,24.1666667 56.048866,25.5666667 57.8284079,25.5666667 Z M70.3341795,19.2166667 C72.5055471,19.2166667 74.3340673,21.0166667 74.3340673,23.65 C74.3340673,26.3 72.5055471,28.0833333 70.3341795,28.0833333 C69.2729848,28.0833333 68.424029,27.75 67.7873122,27.1666667 L67.7873122,31.5333333 C67.7873122,31.6990188 67.6529976,31.8333333 67.4873122,31.8333333 L65.4751406,31.8333333 C65.3094551,31.8333333 65.1751406,31.6990188 65.1751406,31.5333333 L65.1751406,19.7666667 C65.1751406,19.6009812 65.3094551,19.4666667 65.4751406,19.4666667 L67.4873122,19.4666667 C67.6529976,19.4666667 67.7873122,19.6009812 67.7873122,19.7666667 L67.7873122,20.1333333 C68.424029,19.55 69.2729848,19.2166667 70.3341795,19.2166667 Z M69.7954191,25.8166667 C70.9382442,25.8166667 71.7708739,24.95 71.7708739,23.65 C71.7708739,22.3666667 70.9382442,21.4833333 69.7954191,21.4833333 C68.7342244,21.4833333 67.7873122,22.3666667 67.7873122,23.65 C67.7873122,24.95 68.7342244,25.8166667 69.7954191,25.8166667 Z M83.6997909,23.6 C83.6997909,23.815177 83.6997909,23.9765598 83.6997909,24.0841483 C83.6997909,24.1505433 83.6997909,24.2833333 83.4994832,24.2833333 C82.1964906,24.2833333 80.281852,24.2833333 77.7555674,24.2833333 C77.6864612,24.2833333 77.7308469,24.4447247 77.7353152,24.4606874 C77.9858605,25.3557395 78.6267769,25.9 79.455012,25.9 C80.0400352,25.9 80.7169366,25.7593076 81.159449,25.0085917 C81.173852,24.9841572 81.1866144,24.9615453 81.2311785,24.9509559 C81.2757426,24.9403666 81.3318829,24.9604326 81.3566092,24.9655876 C81.8165464,25.0614781 83.3963916,25.3908535 83.3963916,25.3908535 C83.5295805,25.3908535 83.4643246,25.5518733 83.4499096,25.5846019 C82.7220267,27.2372319 81.2720094,28.0333333 79.455012,28.0333333 C77.0877315,28.0333333 75.1286028,26.25 75.1286028,23.6 C75.1286028,20.9666667 77.0877315,19.1666667 79.4713381,19.1666667 C81.7896404,19.1666667 83.6508127,20.8666667 83.6997909,23.6 Z M79.4931062,21.3833333 C78.7883994,21.3833333 78.0686712,21.8127069 77.7949996,22.5979075 C77.7871994,22.6202872 77.7635062,22.7 77.8394609,22.7 C78.5630137,22.7 79.6283795,22.7 81.0355582,22.7 C81.1314194,22.7 81.1176178,22.614807 81.1040337,22.5738699 C80.8343007,21.7610023 80.2080976,21.3833333 79.4931062,21.3833333 Z M134,23.6 C134,23.815177 134,23.9765598 134,24.0841483 C134,24.1505433 134,24.2833333 133.799692,24.2833333 C132.4967,24.2833333 130.582061,24.2833333 128.055776,24.2833333 C127.98667,24.2833333 128.031056,24.4447247 128.035524,24.4606874 C128.28607,25.3557395 128.926986,25.9 129.755221,25.9 C130.340244,25.9 131.017146,25.7593076 131.459658,25.0085917 C131.474061,24.9841572 131.486823,24.9615453 131.531388,24.9509559 C131.575952,24.9403666 131.632092,24.9604326 131.656818,24.9655876 C132.116755,25.0614781 133.696601,25.3908535 133.696601,25.3908535 C133.82979,25.3908535 133.764534,25.5518733 133.750119,25.5846019 C133.022236,27.2372319 131.572218,28.0333333 129.755221,28.0333333 C127.387941,28.0333333 125.428812,26.25 125.428812,23.6 C125.428812,20.9666667 127.387941,19.1666667 129.771547,19.1666667 C132.08985,19.1666667 133.951022,20.8666667 134,23.6 Z M129.793315,21.3833333 C129.088608,21.3833333 128.36888,21.8127069 128.095209,22.5979075 C128.087409,22.6202872 128.063715,22.7 128.13967,22.7 C128.863223,22.7 129.928589,22.7 131.335767,22.7 C131.431629,22.7 131.417827,22.614807 131.404243,22.5738699 C131.13451,21.7610023 130.508307,21.3833333 129.793315,21.3833333 Z M90.2030098,19.2166667 C92.1131603,19.2166667 93.386594,20.6 93.386594,22.7 L93.386594,27.5333333 C93.386594,27.6990188 93.2522794,27.8333333 93.086594,27.8333333 L91.0907484,27.8333333 C90.925063,27.8333333 90.7907484,27.6990188 90.7907484,27.5333333 L90.7907484,23.2666667 C90.7907484,22.2833333 90.2193359,21.6166667 89.3867062,21.6166667 C88.3581636,21.6166667 87.6887946,22.3333333 87.6887946,23.95 L87.6887946,27.5333333 C87.6887946,27.6990188 87.5544801,27.8333333 87.3887946,27.8333333 L85.376623,27.8333333 C85.2109376,27.8333333 85.076623,27.6990188 85.076623,27.5333333 L85.076623,19.7666667 C85.076623,19.6009812 85.2109376,19.4666667 85.376623,19.4666667 L87.3887946,19.4666667 C87.5544801,19.4666667 87.6887946,19.6009812 87.6887946,19.7666667 L87.6887946,20.2666667 C88.3091854,19.6 89.1744672,19.2166667 90.2030098,19.2166667 Z M103.688346,25.5764026 L103.688346,27.5333333 C103.688346,27.6990188 103.554031,27.8333333 103.388346,27.8333333 L95.4661359,27.8333333 C95.3004505,27.8333333 95.1661359,27.6990188 95.1661359,27.5333333 L95.1661359,16.9666667 C95.1661359,16.8009812 95.3004505,16.6666667 95.4661359,16.6666667 L103.339368,16.6666667 C103.505053,16.6666667 103.639368,16.8009812 103.639368,16.9666667 L103.639368,18.8692187 C103.639368,18.9786285 103.598453,19.0333333 103.516624,19.0333333 C103.516624,19.0333333 101.606883,19.0333333 98.021702,19.0333333 C97.9138592,19.0333333 97.8599378,19.0733017 97.8599378,19.1532383 L97.8599378,20.9076274 C97.8599378,21.058098 97.9519234,21.1333333 98.1358944,21.1333333 C98.1358944,21.1333333 99.7528548,21.1333333 102.986776,21.1333333 C103.106199,21.1333333 103.165911,21.2150362 103.165911,21.378442 L103.165911,23.2033903 C103.165911,23.3122412 103.113424,23.3666667 103.00845,23.3666667 C103.00845,23.3666667 101.365199,23.3666667 98.0786973,23.3666667 C98.006569,23.3666667 97.8599378,23.3666667 97.8599378,23.5675942 C97.8599378,23.6946539 97.8599378,24.2707516 97.8599378,25.2958874 C97.8599378,25.4666667 98.0104724,25.4666667 98.0846122,25.4666667 C101.740947,25.4666667 103.569115,25.4666667 103.569115,25.4666667 C103.648602,25.4666667 103.688346,25.5032453 103.688346,25.5764026 Z M113.990098,15.3 L113.990098,27.5333333 C113.990098,27.6990188 113.855783,27.8333333 113.690098,27.8333333 L111.677926,27.8333333 C111.512241,27.8333333 111.377926,27.6990188 111.377926,27.5333333 L111.377926,27.1666667 C110.741209,27.75 109.892253,28.0833333 108.831059,28.0833333 C106.659691,28.0833333 104.831171,26.3 104.831171,23.65 C104.831171,21.0166667 106.659691,19.2166667 108.831059,19.2166667 C109.892253,19.2166667 110.741209,19.55 111.377926,20.1333333 L111.377926,15.3 C111.377926,15.1343146 111.512241,15 111.677926,15 L113.690098,15 C113.855783,15 113.990098,15.1343146 113.990098,15.3 Z M109.369819,25.8166667 C110.431014,25.8166667 111.377926,24.95 111.377926,23.65 C111.377926,22.3666667 110.431014,21.4833333 109.369819,21.4833333 C108.226994,21.4833333 107.394364,22.3666667 107.394364,23.65 C107.394364,24.95 108.226994,25.8166667 109.369819,25.8166667 Z M124.504088,19.7666667 L124.504088,28 C124.504088,30.5833333 122.349047,32 119.687897,32 C117.967552,32 116.631013,31.4402673 115.80388,30.30798 C115.728321,30.2045456 115.591926,30.0049748 115.80458,29.8483088 C115.80458,29.8483088 117.567063,28.7395272 117.570827,28.7366266 C117.712468,28.6274966 117.83113,28.7021907 117.865423,28.7426285 C118.421733,29.3986149 118.888236,29.65 119.687897,29.65 C120.863374,29.65 121.891917,29.05 121.891917,27.7333333 L121.891917,27.1666667 C121.2552,27.75 120.406244,28.0833333 119.345049,28.0833333 C117.173682,28.0833333 115.345162,26.3 115.345162,23.65 C115.345162,21.0166667 117.173682,19.2166667 119.345049,19.2166667 C120.406244,19.2166667 121.2552,19.55 121.891917,20.1333333 L121.891917,19.7666667 C121.891917,19.6009812 122.026231,19.4666667 122.191917,19.4666667 L124.204088,19.4666667 C124.369774,19.4666667 124.504088,19.6009812 124.504088,19.7666667 Z M119.88381,25.8166667 C120.945004,25.8166667 121.891917,24.95 121.891917,23.65 C121.891917,22.3666667 120.945004,21.4833333 119.88381,21.4833333 C118.740985,21.4833333 117.908355,22.3666667 117.908355,23.65 C117.908355,24.95 118.740985,25.8166667 119.88381,25.8166667 Z" id="OpenEdge-Copy-3" fill="#FFFFFF"></path> -->
            <g id="Group-8-Copy" transform="translate(2.000000, 5.000000)" fill-rule="nonzero">
                <ellipse id="Oval-3" fill="#4B93FF" cx="13.405" cy="13.6112308" rx="13.405" ry="13.6112308"></ellipse>
                <circle id="Oval-3-Copy" fill="#4B93FF" cx="28.2" cy="32.6" r="3.8"></circle>
                <circle id="Oval-3-Copy-2" fill="#4B93FF" cx="34.2" cy="3.8" r="3.8"></circle>
                <circle id="Oval-3-Copy-3" fill="#4B93FF" cx="36.2" cy="17.8" r="3.8"></circle>
                <circle id="Oval-3-Copy-4" fill="#4B93FF" cx="13.4" cy="36.2" r="3.8"></circle>
                <path d="M13.6,2.8 L13.6,35.6" id="Path-4" stroke="#4B93FF"></path>
                <path d="M13.6,4.4 L27.6,32.8" id="Path-4-Copy" stroke="#4B93FF"></path>
                <path d="M13.7995622,4.35904853 C13.7995622,4.35904853 20.9330415,8.90603235 35.2,18" id="Path-4-Copy-2" stroke="#4B93FF"></path>
                <path d="M13.6,4 L35.2,4" id="Path-4-Copy-3" stroke="#4B93FF"></path>
            </g>
        </g>
    </g>
</svg>
