<?xml version="1.0" encoding="UTF-8"?>
<svg width="133px" height="48px" viewBox="0 0 133 48" version="1.1" xmlns="http://www.w3.org/2000/svg" xmlns:xlink="http://www.w3.org/1999/xlink">
    <!-- Generator: Sketch 52.5 (67469) - http://www.bohemiancoding.com/sketch -->
    <title>分组@2x</title>
    <desc>Created with Sketch.</desc>
    <defs>
        <linearGradient x1="100%" y1="27.0538967%" x2="97.104376%" y2="-4.99290795%" id="linearGradient-1">
            <stop stop-color="#2C4667" offset="0%"></stop>
            <stop stop-color="#2A496D" stop-opacity="0" offset="100%"></stop>
        </linearGradient>
        <linearGradient x1="0%" y1="50%" x2="100%" y2="50%" id="linearGradient-2">
            <stop stop-color="#218CCE" offset="0%"></stop>
            <stop stop-color="#003D98" offset="100%"></stop>
        </linearGradient>
    </defs>
    <g id="Page-1" stroke="none" stroke-width="1" fill="none" fill-rule="evenodd">
        <g id="首页--copy-2" transform="translate(-574.000000, -110.000000)">
            <g id="Group" transform="translate(0.000000, 50.000000)">
                <g transform="translate(-320.000000, 0.000000)" id="Group-2">
                    <g transform="translate(761.000000, 60.000000)">
                        <g id="分组" transform="translate(133.000000, 0.000000)">
                            <g id="Group-13" fill-rule="nonzero">
                                <g id="Group-8-Copy-2">
                                    <ellipse id="Oval-3" fill="#FFFFFF" cx="16.086" cy="16.3334769" rx="16.086" ry="16.3334769"></ellipse>
                                    <circle id="Oval-3-Copy" fill="#FFFFFF" cx="33.84" cy="39.12" r="4.56"></circle>
                                    <circle id="Oval-3-Copy-2" fill="#FFFFFF" cx="41.04" cy="4.56" r="4.56"></circle>
                                    <circle id="Oval-3-Copy-3" fill="#FFFFFF" cx="43.44" cy="21.36" r="4.56"></circle>
                                    <circle id="Oval-3-Copy-4" fill="#FFFFFF" cx="16.08" cy="43.44" r="4.56"></circle>
                                    <path d="M16.32,3.36 L16.32,42.72" id="Path-4" stroke="#FFFFFF" stroke-width="1.2"></path>
                                    <path d="M16.32,5.28 L33.12,39.36" id="Path-4-Copy" stroke="#FFFFFF" stroke-width="1.2"></path>
                                    <path d="M16.5594746,5.23085824 C16.5594746,5.23085824 25.1196497,10.6872388 42.24,21.6" id="Path-4-Copy-2" stroke="#FFFFFF" stroke-width="1.2"></path>
                                    <path d="M16.32,4.8 L42.24,4.8" id="Path-4-Copy-3" stroke="#FFFFFF" stroke-width="1.2"></path>
                                </g>
                            </g>
                            <path d="M68.5646023,22.176 L68.5646023,22.272 C70.0526023,22.392 71.6606023,23.544 71.6606023,25.968 C71.6606023,28.632 69.8606023,30.48 66.3566023,30.48 C63.3547896,30.48 61.10343,30.48 59.6025237,30.48 C59.0698832,30.48 58.6764294,30.5239464 58.3190549,30.1834318 C58.0808053,29.9564221 57.9759877,29.5477662 58.0046023,28.957464 L58.0046023,15.5019203 C57.9920489,15.0674258 58.0438535,14.7751488 58.160016,14.6250893 C58.3342598,14.4 58.6769381,14.4 59.2131828,14.4 C60.706353,14.4 63.0794928,14.4 66.3326023,14.4 C69.2846023,14.4 71.2046023,16.152 71.2046023,18.792 C71.2046023,21 69.6446023,22.056 68.5646023,22.176 Z M61.9646023,17.592 L61.9646023,21.048 L65.4206023,21.048 C66.5966023,21.048 67.3646023,20.328 67.3646023,19.248 C67.3646023,18.24 66.5726023,17.592 65.5646023,17.592 L61.9646023,17.592 Z M61.9646023,27.288 L65.6606023,27.288 C66.9326023,27.288 67.6286023,26.592 67.6286023,25.488 C67.6286023,24.432 66.8606023,23.76 65.7326023,23.76 L61.9646023,23.76 L61.9646023,27.288 Z M79.3166023,18.072 C82.7006023,18.072 84.8366023,19.776 84.8366023,22.848 L84.8366023,29.98 C84.8366023,30.2561424 84.6127447,30.48 84.3366023,30.48 L81.6406023,30.48 C81.3644599,30.48 81.1406023,30.2561424 81.1406023,29.98 L81.1406023,29.592 C80.3006023,30.312 79.1486023,30.84 77.5406023,30.84 C74.8526023,30.84 73.0526023,29.28 73.0526023,26.904 C73.0526023,24.552 74.8526023,23.016 78.0686023,23.016 L81.1406023,23.016 L81.1406023,22.776 C81.1406023,21.768 80.4446023,21.096 79.4366023,21.096 C78.4429556,21.096 77.8064174,21.4352532 77.5269879,22.2061656 C77.4824564,22.3290227 77.3709054,22.5941731 77.2117204,22.5614927 C77.0525354,22.5288124 76.7362136,22.4674964 76.6221021,22.4440695 C76.0943877,22.3357308 75.4141928,22.1960881 74.5815172,22.0251415 C74.4314001,21.9943227 74.1877891,21.9737844 74.0526323,21.7489792 C73.9174755,21.524174 73.994253,21.2045773 74.0526323,21.0668018 C74.8407885,19.2067465 76.781057,18.072 79.3166023,18.072 Z M78.6206023,27.96 C79.9406023,27.96 81.1406023,27.072 81.1406023,25.728 L81.1406023,25.464 L78.5006023,25.464 C77.5406023,25.464 76.9406023,25.968 76.9406023,26.712 C76.9406023,27.48 77.6126023,27.96 78.6206023,27.96 Z M99.0446023,24.456 C99.0497991,24.8335085 98.993384,25.0958096 98.8753571,25.2429032 C98.6983167,25.4635435 98.5182322,25.44 98.2550471,25.44 C96.4678372,25.44 93.7870222,25.44 90.2126023,25.44 C90.5246023,26.88 91.5086023,27.768 92.8046023,27.768 C93.5998825,27.768 94.5106613,27.594752 95.1576627,26.7138215 C95.233095,26.611116 95.397141,26.3791882 95.5634675,26.4131563 C95.7297939,26.4471243 95.7052552,26.4439362 95.8715816,26.4779042 C96.4744028,26.6010156 97.3582927,26.7815283 98.5232514,27.0194424 C98.6075628,27.036661 98.7461847,27.1418712 98.6873798,27.2868322 C98.6285749,27.4317931 98.6592521,27.357636 98.5930729,27.4940429 C97.4978369,29.7515165 95.4073334,30.84 92.8046023,30.84 C89.3246023,30.84 86.4446023,28.272 86.4446023,24.456 C86.4446023,20.664 89.3246023,18.072 92.8286023,18.072 C96.2366023,18.072 98.9726023,20.52 99.0446023,24.456 Z M92.8286023,21.192 C91.7486023,21.192 90.6446023,21.864 90.2846023,23.088 L95.2526023,23.088 C94.8926023,21.792 93.9326023,21.192 92.8286023,21.192 Z M109.019524,27.1311688 C109.123009,27.1843915 109.183165,27.2908903 109.236447,27.4723355 C109.374051,27.940935 109.570165,28.6087821 109.824788,29.4758768 C109.869582,29.6284181 109.726469,30.077881 109.605559,30.1373895 C108.772894,30.5472056 107.871145,30.84 106.676602,30.84 C103.676602,30.84 101.876602,29.208 101.876602,26.04 L101.876602,21.48 L100.192602,21.48 C99.9164599,21.48 99.6926023,21.2561424 99.6926023,20.98 L99.6926023,18.932 C99.6926023,18.6558576 99.9164599,18.432 100.192602,18.432 L101.876602,18.432 L101.876602,14.9 C101.876602,14.6238576 102.10046,14.4 102.376602,14.4 L105.216602,14.4 C105.492745,14.4 105.716602,14.6238576 105.716602,14.9 L105.716602,15.005052 L105.716602,18.432 L108.768602,18.432 C109.044745,18.432 109.268602,18.6558576 109.268602,18.932 L109.268602,20.98 C109.268602,21.2561424 109.044745,21.48 108.768602,21.48 L105.716602,21.48 L105.716602,25.656 C105.716602,26.904 106.316602,27.408 107.324602,27.408 C107.70015,27.408 108.172831,27.3108675 108.595834,27.1511461 C108.76755,27.0863079 108.916039,27.0779462 109.019524,27.1311688 Z M124.062914,19.1063008 L116.790946,35.9383008 C116.711831,36.121425 116.531434,36.24 116.331951,36.24 L113.293198,36.24 C113.017056,36.24 112.793198,36.0161424 112.793198,35.74 C112.793198,35.6718127 112.807145,35.604346 112.834182,35.5417478 L115.196602,30.072 L110.502792,19.1047313 C110.39414,18.8508624 110.511862,18.5569814 110.765731,18.4483297 C110.827906,18.4217199 110.894832,18.408 110.962462,18.408 L113.659416,18.408 C114.066394,18.408 114.432774,18.6546421 114.585917,19.0317078 L117.188602,25.44 L119.975535,19.0103047 C120.13403,18.6446422 120.494518,18.408 120.893053,18.408 L123.603918,18.408 C123.880061,18.408 124.103918,18.6318576 124.103918,18.908 C124.103918,18.9762051 124.089964,19.0436891 124.062914,19.1063008 Z M129.596602,12.5 L129.596602,26.376 C129.596602,27 130.052602,27.432 130.748602,27.432 C130.973757,27.432 131.27435,27.3673384 131.614274,27.266902 C131.78162,27.2174564 131.93239,27.1511467 132.066719,27.2090244 C132.201048,27.266902 132.201048,27.3982288 132.231271,27.5493432 C132.322582,28.0058995 132.450726,28.6466179 132.615702,29.4714987 C132.655222,29.6690979 132.692641,29.814014 132.615702,29.9781286 C132.538763,30.1422432 132.444437,30.2411547 132.287488,30.314027 C131.701391,30.5861555 131.006579,30.84 129.908602,30.84 C127.412602,30.84 125.756602,29.16 125.756602,26.664 L125.756602,12.5 C125.756602,12.2238576 125.98046,12 126.256602,12 L129.096602,12 C129.372745,12 129.596602,12.2238576 129.596602,12.5 Z" id="Baetyl-Copy-2" fill="#FFFFFF"></path>
                        </g>
                    </g>
                </g>
            </g>
        </g>
    </g>
</svg>
